<svg xmlns="http://www.w3.org/2000/svg" version="1.1" xmlns:xlink="http://www.w3.org/1999/xlink" xmlns:svgjs="http://svgjs.com/svgjs" width="100%" height="100%"><svg width="100%" height="100%" viewBox="0 0 229 108" version="1.1" xmlns="http://www.w3.org/2000/svg" xmlns:xlink="http://www.w3.org/1999/xlink" xml:space="preserve" xmlns:serif="http://www.serif.com/" style="fill-rule:evenodd;clip-rule:evenodd;stroke-linejoin:round;stroke-miterlimit:2;"><g id="SvgjsG1001" serif:id="Layer 1"><path id="SvgjsPath1000" d="M6.048,0l0,56.016l31.103,-0.144c3.744,0 6.961,1.343 9.649,4.031c2.688,2.688 4.032,5.905 4.032,9.649c-0,3.744 -1.344,6.96 -4.032,9.648c-2.784,2.592 -6.001,3.887 -9.649,3.887c-3.648,0 -6.863,-1.295 -9.647,-3.887c-2.592,-2.592 -3.888,-5.808 -3.888,-9.648l-23.616,0c-0,4.992 0.912,9.744 2.736,14.256c1.92,4.512 4.656,8.496 8.208,11.952c3.456,3.552 7.44,6.287 11.952,8.207c4.512,1.824 9.263,2.737 14.255,2.737c4.992,-0 9.746,-0.913 14.258,-2.737c0.927,-0.394 1.833,-0.825 2.72,-1.289l16.178,-49.884c-1.73,-3.514 -3.999,-6.712 -6.803,-9.594c-3.552,-3.456 -7.583,-6.097 -12.095,-7.921c-4.512,-1.92 -9.266,-2.88 -14.258,-2.88l-7.631,0l-0,-8.783l36.864,0l-0,-23.616l-60.336,0Zm64.259,52.794c0.401,0.817 0.773,1.652 1.117,2.502c1.92,4.512 2.88,9.264 2.88,14.256c0,4.992 -0.96,9.744 -2.88,14.256c-1.824,4.512 -4.464,8.496 -7.92,11.952c-2.822,2.822 -5.947,5.126 -9.375,6.918l-1.305,4.026l24.767,-0l24.564,-75.745l-9.467,0c-0,-4.128 0.768,-8.064 2.304,-11.808c1.632,-3.744 3.888,-7.103 6.768,-10.079c2.855,-2.855 6.064,-5.045 9.625,-6.574l0.623,-1.922l-24.768,-0l-16.933,52.218Zm41.078,-50.296l-9.23,28.461l14.149,0c0,-2.112 0.719,-3.887 2.159,-5.327c1.632,-1.44 3.409,-2.161 5.329,-2.161l3.456,0c2.016,0 3.744,0.721 5.184,2.161c1.536,1.536 2.304,3.311 2.304,5.327c0,2.016 -0.768,3.792 -2.304,5.328c-1.344,1.44 -3.072,2.161 -5.184,2.161l-7.632,-0l0,0.288l-0.145,0l0,23.472l8.785,-0c2.976,-0 5.52,1.056 7.632,3.168c2.112,2.016 3.168,4.56 3.168,7.632c0,3.072 -1.056,5.616 -3.168,7.632c-2.112,2.112 -4.656,3.168 -7.632,3.168l-3.312,0c-2.976,0 -5.52,-1.056 -7.632,-3.168c-2.112,-2.016 -3.168,-4.56 -3.168,-7.632l-23.617,-0c0,4.608 0.865,9.024 2.593,13.248c1.728,4.128 4.224,7.823 7.488,11.087c3.264,3.264 6.96,5.761 11.088,7.489c4.224,1.632 8.64,2.447 13.248,2.447l3.312,0c4.608,0 8.976,-0.815 13.104,-2.447c0.784,-0.321 1.535,-0.696 2.286,-1.07l15.117,-46.616c-1.604,-3.031 -3.654,-5.812 -6.172,-8.33c3.744,-5.376 5.617,-11.329 5.617,-17.857c-0,-4.128 -0.769,-8.064 -2.305,-11.808c-1.536,-3.744 -3.791,-7.103 -6.767,-10.079c-2.976,-2.976 -6.336,-5.232 -10.08,-6.768c-3.744,-1.536 -7.68,-2.304 -11.808,-2.304l-3.456,0c-4.224,0 -8.209,0.768 -11.953,2.304c-0.152,0.063 -0.303,0.129 -0.454,0.194Zm47.378,54.648c0.475,0.899 0.922,1.814 1.317,2.757c1.728,4.128 2.592,8.497 2.592,13.105c0,4.608 -0.864,9.024 -2.592,13.248c-1.728,4.128 -4.225,7.823 -7.489,11.087c-2.658,2.658 -5.651,4.78 -8.945,6.419l-0.954,2.942l24.767,-0l21.937,-67.642l-0,-22.358c2.112,-0 4.128,-0.384 6.048,-1.152c0.663,-0.298 1.294,-0.633 1.9,-1l4.532,-13.976l-24.768,-0l-18.345,56.57Zm38.581,-42.594l-7.948,24.51l-0,1.114c5.376,0 10.607,-1.056 15.695,-3.168l0,69.696l23.473,-0l-0,-105.985l-23.473,0l0,0.289c0,2.208 -0.432,4.272 -1.296,6.192c-0.768,1.824 -1.872,3.455 -3.312,4.895c-0.943,0.943 -1.99,1.761 -3.139,2.457Z" style="fill-rule:nonzero;"></path></g></svg><style>@media (prefers-color-scheme: light) { :root { filter: none; } }
@media (prefers-color-scheme: dark) { :root { filter: invert(100%); } }
</style></svg>